<?xml version="1.0" standalone="no"?>
<!DOCTYPE svg PUBLIC "-//W3C//DTD SVG 20010904//EN"
 "http://www.w3.org/TR/2001/REC-SVG-20010904/DTD/svg10.dtd">
<svg version="1.0" xmlns="http://www.w3.org/2000/svg"
 width="512.000000pt" height="512.000000pt" viewBox="0 0 512.000000 512.000000"
 preserveAspectRatio="xMidYMid meet">
<metadata>
Created by potrace 1.14, written by Peter Selinger 2001-2017
</metadata>
<g transform="translate(0.000000,512.000000) scale(0.100000,-0.100000)"
fill="#000000" stroke="none">
<path d="M605 5105 c-148 -33 -280 -126 -365 -257 -35 -53 -73 -154 -85 -223
-11 -63 -6 -2829 6 -2890 34 -188 193 -372 376 -434 94 -32 112 -33 408 -36
154 -2 283 -3 286 -4 3 -1 6 -162 6 -358 0 -197 3 -374 7 -393 13 -78 18 -95
40 -150 56 -137 164 -247 309 -314 100 -46 91 -46 1517 -46 1313 0 1347 1
1423 20 173 45 311 160 384 320 19 43 24 55 41 112 4 13 8 752 9 1643 3 1790
8 1661 -62 1802 -67 136 -189 240 -340 290 -78 25 -88 26 -370 29 -159 1 -295
3 -301 3 -7 1 -11 60 -11 179 -1 195 -6 242 -30 317 -58 179 -192 311 -388
382 -47 17 -129 18 -1425 20 -1114 1 -1386 -1 -1435 -12z m2743 -436 c35 -13
72 -48 84 -79 7 -18 13 -260 8 -365 0 -7 -293 -10 -858 -11 l-857 0 -80 -28
c-44 -15 -98 -38 -121 -51 -98 -57 -195 -170 -241 -280 -44 -105 -45 -130 -46
-1162 0 -890 -2 -982 -16 -985 -9 -2 -131 -3 -271 -2 -191 0 -261 4 -280 14
-31 17 -69 59 -76 85 -2 11 -3 644 -2 1407 l3 1386 25 27 c52 56 -28 52 1388
53 873 1 1322 -2 1340 -9z m1109 -912 c17 -9 41 -32 52 -50 l21 -34 0 -1565 0
-1565 -23 -34 c-49 -74 62 -69 -1418 -66 l-1327 2 -27 25 c-61 57 -57 -62 -57
1640 0 1365 2 1562 15 1586 19 35 45 58 81 70 15 5 601 9 1339 9 1209 -1 1314
-2 1344 -18z"/>
</g>
</svg>
